<svg width="113" height="30" viewBox="0 0 113 30" fill="none" xmlns="http://www.w3.org/2000/svg">
<path d="M0 18.3379C0 11.0599 4.49668 6.53271 10.7143 6.53271C14.1007 6.53271 16.3213 7.76481 17.7092 9.484L17.7924 6.99117H23.6215V29.4553H17.7369L17.5426 26.8192C16.3768 28.3665 14.0174 29.9138 10.5478 29.9138C5.1351 29.8851 0 26.0456 0 18.3379ZM17.3761 18.1946C17.3761 13.9539 14.8779 12.0628 12.0189 12.0628C9.15991 12.0628 6.66175 14.2118 6.66175 18.2233C6.66175 22.2347 8.96561 24.2978 11.9079 24.2978C14.6281 24.2978 17.3761 22.6072 17.3761 18.1946Z" fill="white"/>
<path d="M27.6466 18.3952C27.6466 11.633 31.4494 6.53271 38.694 6.53271C46.4105 6.53271 49.3528 12.0055 49.3528 18.0227C49.3528 18.825 49.2973 19.4267 49.1585 20.2576H34.2528C34.697 23.2949 37.1951 24.527 40.8036 24.527C44.412 24.527 46.9379 23.3235 48.187 22.6359V28.0227C46.6881 28.825 43.8846 29.8565 39.7488 29.8565C32.3653 29.8851 27.6466 26.0456 27.6466 18.3952ZM42.8854 16.1029C42.8021 13.6674 41.2477 11.8336 38.694 11.8336C36.3346 11.8336 34.5859 13.5241 34.3084 16.1029H42.8854Z" fill="white"/>
<path d="M54.7089 21.2607V12.149H50.7673V11.6619C52.405 9.91404 58.928 2.40688 60.6489 0H61.1208V6.96275H67.0609V12.149H61.1208V20.3725C61.1208 22.7507 61.5649 24.4413 64.5072 24.4413C65.8951 24.4413 67.0054 24.0974 68.0879 23.5817V28.9112C67.1164 29.3983 65.3399 29.8567 63.0361 29.8567C57.5401 29.8854 54.7089 27.2493 54.7089 21.2607Z" fill="white"/>
<path d="M70.4207 18.3379C70.4207 11.0599 74.9174 6.53271 81.135 6.53271C84.5214 6.53271 86.742 7.76481 88.1299 9.484L88.2132 6.99117H94.0422V29.4553H88.1576L87.9633 26.8192C86.7975 28.3665 84.4382 29.9138 80.9685 29.9138C75.5281 29.8851 70.4207 26.0456 70.4207 18.3379ZM87.7968 18.1946C87.7968 13.9539 85.2986 12.0628 82.4396 12.0628C79.5806 12.0628 77.0825 14.2118 77.0825 18.2233C77.0825 22.2347 79.3863 24.2978 82.3286 24.2978C85.0488 24.2978 87.7968 22.6072 87.7968 18.1946Z" fill="white"/>
<path d="M98.2061 28.5961V23.3812C99.1221 23.9256 101.731 25.129 104.174 25.129C106.117 25.129 107.033 24.2408 107.033 22.9514C107.033 19.0259 98.2616 21.1462 98.2616 13.3525C98.2616 8.68202 101.481 6.59033 106.228 6.59033C108.782 6.59033 110.752 7.19205 111.446 7.5932V12.7794C110.142 12.0918 108.449 11.3468 106.672 11.3468C104.896 11.3468 104.257 12.1491 104.257 13.1519C104.257 16.533 113.001 14.5846 113.001 22.5216C113.001 27.5359 109.531 30.0001 104.646 30.0001C101.981 29.8855 99.4552 29.2264 98.2061 28.5961Z" fill="white"/>
</svg>
