<svg xmlns="http://www.w3.org/2000/svg" width="280" height="50" viewBox="0 0 140 25" fill="none"><path d="M19.6638 24.2258H16.2598C15.2916 24.2258 14.3972 23.7001 13.9262 22.8532L13.1007 21.3689L12.2753 22.8532C11.8043 23.7001 10.9123 24.2258 9.94172 24.2258H6.53768C5.58141 24.2258 4.72267 23.7334 4.2374 22.9103C3.75213 22.0873 3.74024 21.0954 4.2041 20.2604L10.7672 8.44993C11.2453 7.5912 12.1159 7.07739 13.1007 7.07739C14.0856 7.07739 14.9562 7.5912 15.4343 8.44993L21.995 20.2604C22.4589 21.0954 22.447 22.0873 21.9617 22.9103C21.4764 23.7334 20.6177 24.2258 19.6614 24.2258H19.6638ZM13.881 19.9654L15.1179 22.192C15.3487 22.6059 15.7864 22.8651 16.2598 22.8651H19.6638C20.1324 22.8651 20.5535 22.6249 20.7913 22.2205C21.0292 21.8161 21.034 21.3308 20.808 20.9217L14.2473 9.11122C14.0142 8.69018 13.586 8.43804 13.1055 8.43804C12.625 8.43804 12.1968 8.69018 11.9613 9.11122L5.39825 20.9217C5.16988 21.3308 5.17702 21.8161 5.4149 22.2205C5.65278 22.6249 6.07382 22.8651 6.54244 22.8651H9.94648C10.4199 22.8651 10.8599 22.6082 11.0883 22.192L12.3253 19.9654L10.3461 16.4045C10.0559 15.8788 10.063 15.2579 10.3675 14.7417C10.672 14.2255 11.212 13.9163 11.8114 13.9163H14.3972C14.9966 13.9163 15.5366 14.2255 15.8411 14.7417C16.1456 15.2579 16.1527 15.8788 15.8625 16.4045L13.8834 19.9654H13.881ZM11.8091 15.2793C11.6521 15.2793 11.5736 15.3768 11.5379 15.4339C11.5046 15.491 11.4594 15.6076 11.5331 15.7456L13.1007 18.5644L14.6684 15.7432C14.7445 15.6076 14.6993 15.4886 14.6636 15.4316C14.6303 15.3745 14.5494 15.2769 14.3924 15.2769H11.8067L11.8091 15.2793Z" fill="#FFFFFF"></path><path d="M3.66332 14.2831C1.64374 14.2831 0 12.6394 0 10.6198C0 8.60026 1.64374 6.95654 3.66332 6.95654C5.68291 6.95654 7.32664 8.60026 7.32664 10.6198C7.32664 12.6394 5.68291 14.2831 3.66332 14.2831ZM3.66332 8.31719C2.39305 8.31719 1.36066 9.34956 1.36066 10.6198C1.36066 11.8901 2.39305 12.9224 3.66332 12.9224C4.93359 12.9224 5.96598 11.8901 5.96598 10.6198C5.96598 9.34956 4.93359 8.31719 3.66332 8.31719Z" fill="#FFFFFF"></path><path d="M22.5488 14.2832C20.5292 14.2832 18.8855 12.6395 18.8855 10.6199C18.8855 8.60038 20.5292 6.95667 22.5488 6.95667C24.5684 6.95667 26.2121 8.60038 26.2121 10.6199C26.2121 12.6395 24.5684 14.2832 22.5488 14.2832ZM22.5488 8.31731C21.2786 8.31731 20.2462 9.34969 20.2462 10.6199C20.2462 11.8902 21.2786 12.9226 22.5488 12.9226C23.8191 12.9226 24.8515 11.8902 24.8515 10.6199C24.8515 9.34969 23.8191 8.31731 22.5488 8.31731Z" fill="#FFFFFF"></path><path d="M8.81078 7.32429C6.7912 7.32429 5.14746 5.68057 5.14746 3.66102C5.14746 1.64146 6.7912 0.00012207 8.81078 0.00012207C10.8304 0.00012207 12.4741 1.64384 12.4741 3.66339C12.4741 5.68295 10.8304 7.32667 8.81078 7.32667V7.32429ZM8.81078 1.36077C7.54051 1.36077 6.50812 2.39314 6.50812 3.66339C6.50812 4.93365 7.54051 5.96602 8.81078 5.96602C10.0811 5.96602 11.1134 4.93365 11.1134 3.66339C11.1134 2.39314 10.0811 1.36077 8.81078 1.36077Z" fill="#FFFFFF"></path><path d="M17.404 7.32429C15.3845 7.32429 13.7407 5.68057 13.7407 3.66102C13.7407 1.64146 15.3845 0.00012207 17.404 0.00012207C19.4236 0.00012207 21.0674 1.64384 21.0674 3.66339C21.0674 5.68295 19.4236 7.32667 17.404 7.32667V7.32429ZM17.404 1.36077C16.1338 1.36077 15.1014 2.39314 15.1014 3.66339C15.1014 4.93365 16.1338 5.96602 17.404 5.96602C18.6743 5.96602 19.7067 4.93365 19.7067 3.66339C19.7067 2.39314 18.6743 1.36077 17.404 1.36077Z" fill="#FFFFFF"></path><path d="M32.3607 19.6146L37.9508 4.952C38.5574 3.38679 39.0689 1.78827 37.7915 0.606031L37.8866 0.446655H44.2451L51.6883 19.6146C52.2949 21.1798 53.0942 22.7783 54.0837 24.0557L53.9886 24.2151H46.5454L46.4502 24.0557C47.2804 22.745 46.8974 21.1156 46.386 19.6146L45.9697 18.4014H37.1849L36.7686 19.6146C36.3214 20.9562 35.8432 22.745 36.7377 24.0557L36.6425 24.2151H30.0604L29.9653 24.0557C30.9881 22.7783 31.785 21.1489 32.3607 19.6146ZM44.6923 14.7905L41.5927 5.81311L38.4623 14.7905H44.6923Z" fill="#FFFFFF"></path><path d="M56.7421 19.6146V5.04715C56.7421 3.41771 56.6779 1.94765 55.8144 0.606031L55.9095 0.446655H62.7462L72.4278 17.4428V5.04715C72.4278 3.61039 72.3326 1.94765 71.6618 0.606031L71.757 0.446655H77.5398L77.6349 0.606031C76.9641 1.94765 76.869 3.60801 76.869 5.04715V24.2151H71.374L61.1524 6.26032V19.6146C61.1524 21.0514 61.2808 22.7141 61.9516 24.0557L61.8565 24.2151H56.0737L55.9785 24.0557C56.6493 22.7141 56.7445 21.0538 56.7445 19.6146H56.7421Z" fill="#FFFFFF"></path><path d="M83.0893 19.6146V5.04715C83.0893 3.61039 82.9942 1.91672 82.3234 0.606031L82.4185 0.446655H88.7437L88.8388 0.606031C88.168 1.91672 88.0729 3.60801 88.0729 5.04715V19.6146C88.0729 21.0514 88.168 22.745 88.8388 24.0557L88.7437 24.2151H82.4185L82.3234 24.0557C82.9942 22.745 83.0893 21.0538 83.0893 19.6146Z" fill="#FFFFFF"></path><path d="M93.2099 21.979C93.2099 20.478 94.4231 19.2625 95.9241 19.2625C97.4251 19.2625 98.6074 20.4756 98.6074 21.979C98.6074 23.4824 97.3942 24.6622 95.9241 24.6622C94.454 24.6622 93.2099 23.449 93.2099 21.979Z" fill="#FFFFFF"></path><path d="M96.1277 0.606031L96.2228 0.446655H103.794L103.89 0.606031C103.09 1.91672 103.412 3.60801 103.89 5.04715L108.524 18.656L113.188 5.04715C113.666 3.61039 113.892 1.91672 113.124 0.606031L113.219 0.446655H120.184L120.279 0.606031C119.226 1.88342 118.426 3.70554 117.915 5.04715L110.726 24.2151H105.774L98.4565 5.04715C97.8808 3.48194 97.1149 1.81919 96.1229 0.606031H96.1277Z" fill="#FFFFFF"></path><path d="M120.258 12.429C120.258 5.11193 125.72 0 132.621 0C134.633 0 136.998 0.447205 138.882 1.56522L139.522 7.6667L139.362 7.76186C138.147 5.90881 136.134 4.27937 133.132 4.27937C128.755 4.27937 125.304 7.4431 125.304 12.4266C125.304 17.4101 128.532 20.3811 132.94 20.3811C136.294 20.3811 138.499 18.4638 139.81 16.2278L140 16.323L139.234 22.8074C137.635 23.9254 135.335 24.6605 132.621 24.6605C125.273 24.6605 120.258 19.5486 120.258 12.4242V12.429Z" fill="#FFFFFF"></path></svg>